<svg xmlns="http://www.w3.org/2000/svg" xmlns:xlink="http://www.w3.org/1999/xlink" width="50" zoomAndPan="magnify" viewBox="0 0 37.5 37.499999" height="50" preserveAspectRatio="xMidYMid meet" version="1.0"><defs><g/><clipPath id="299a1bce01"><path d="M 17 4 L 36.914062 4 L 36.914062 28 L 17 28 Z M 17 4 " clip-rule="nonzero"/></clipPath><clipPath id="378382acb4"><path d="M 24 2.570312 L 31 2.570312 L 31 7 L 24 7 Z M 24 2.570312 " clip-rule="nonzero"/></clipPath><clipPath id="25472f34ed"><path d="M 0.914062 7 L 26 7 L 26 34.820312 L 0.914062 34.820312 Z M 0.914062 7 " clip-rule="nonzero"/></clipPath></defs><g clip-path="url(#299a1bce01)"><path fill="#e61228" d="M 18.246094 4.304688 L 36.574219 4.304688 L 36.910156 27.820312 L 17.902344 27.820312 Z M 18.246094 4.304688 " fill-opacity="1" fill-rule="nonzero"/></g><path fill="#ffffff" d="M 25.359375 5.53125 C 25.359375 5.742188 25.28125 5.921875 25.121094 6.070312 C 24.957031 6.222656 24.765625 6.296875 24.535156 6.296875 C 24.308594 6.296875 24.117188 6.222656 23.953125 6.070312 C 23.792969 5.921875 23.714844 5.742188 23.714844 5.53125 C 23.714844 5.316406 23.792969 5.136719 23.953125 4.988281 C 24.117188 4.835938 24.308594 4.761719 24.535156 4.761719 C 24.765625 4.761719 24.957031 4.835938 25.121094 4.988281 C 25.28125 5.136719 25.359375 5.316406 25.359375 5.53125 Z M 25.359375 5.53125 " fill-opacity="1" fill-rule="nonzero"/><path fill="#ffffff" d="M 31.089844 5.53125 C 31.089844 5.742188 31.007812 5.921875 30.847656 6.070312 C 30.6875 6.222656 30.492188 6.296875 30.265625 6.296875 C 30.039062 6.296875 29.84375 6.222656 29.683594 6.070312 C 29.523438 5.921875 29.441406 5.742188 29.441406 5.53125 C 29.441406 5.316406 29.523438 5.136719 29.683594 4.988281 C 29.84375 4.835938 30.039062 4.761719 30.265625 4.761719 C 30.492188 4.761719 30.6875 4.835938 30.847656 4.988281 C 31.007812 5.136719 31.089844 5.316406 31.089844 5.53125 Z M 31.089844 5.53125 " fill-opacity="1" fill-rule="nonzero"/><g clip-path="url(#378382acb4)"><path fill="#ffffff" d="M 29.828125 6.140625 C 29.726562 4.46875 28.664062 3.164062 27.394531 3.152344 C 26.136719 3.144531 25.074219 4.414062 24.945312 6.078125 C 24.554688 5.621094 24.269531 5.273438 24.230469 5.21875 C 24.203125 5.171875 24.183594 5.117188 24.183594 5.117188 C 24.175781 5.101562 24.175781 5.074219 24.175781 5.046875 C 24.175781 4.917969 24.257812 4.808594 24.351562 4.808594 C 24.417969 4.679688 25.453125 2.570312 27.40625 2.558594 C 29.375 2.550781 30.414062 4.679688 30.476562 4.808594 C 30.488281 4.808594 30.550781 4.808594 30.605469 4.878906 C 30.636719 4.925781 30.664062 4.980469 30.664062 5.046875 C 30.386719 5.410156 30.105469 5.777344 29.828125 6.140625 Z M 29.828125 6.140625 " fill-opacity="1" fill-rule="nonzero"/></g><g clip-path="url(#25472f34ed)"><path fill="#e61228" d="M 0.921875 12.078125 L 18.578125 7.191406 L 25.324219 29.75 L 7.019531 34.820312 Z M 0.921875 12.078125 " fill-opacity="1" fill-rule="nonzero"/></g><path fill="#ffffff" d="M 8.109375 11.367188 C 8.167969 11.570312 8.140625 11.765625 8.027344 11.953125 C 7.914062 12.140625 7.746094 12.265625 7.527344 12.324219 C 7.308594 12.386719 7.101562 12.367188 6.90625 12.265625 C 6.710938 12.164062 6.582031 12.011719 6.523438 11.804688 C 6.46875 11.601562 6.496094 11.40625 6.609375 11.21875 C 6.722656 11.03125 6.890625 10.90625 7.109375 10.847656 C 7.328125 10.785156 7.535156 10.808594 7.730469 10.910156 C 7.925781 11.011719 8.054688 11.164062 8.109375 11.367188 Z M 8.109375 11.367188 " fill-opacity="1" fill-rule="nonzero"/><path fill="#ffffff" d="M 13.625 9.832031 C 13.683594 10.035156 13.652344 10.230469 13.539062 10.417969 C 13.425781 10.605469 13.261719 10.730469 13.042969 10.789062 C 12.820312 10.851562 12.613281 10.832031 12.417969 10.730469 C 12.222656 10.628906 12.097656 10.476562 12.039062 10.273438 C 11.980469 10.066406 12.007812 9.871094 12.121094 9.683594 C 12.234375 9.496094 12.402344 9.375 12.621094 9.3125 C 12.839844 9.253906 13.046875 9.273438 13.242188 9.375 C 13.4375 9.476562 13.566406 9.628906 13.625 9.832031 Z M 13.625 9.832031 " fill-opacity="1" fill-rule="nonzero"/><path fill="#ffffff" d="M 12.582031 10.753906 C 12.027344 9.175781 10.636719 8.195312 9.425781 8.527344 C 8.214844 8.855469 7.53125 10.371094 7.863281 11.996094 C 7.363281 11.660156 6.992188 11.402344 6.9375 11.367188 C 6.890625 11.332031 6.871094 11.285156 6.871094 11.285156 C 6.863281 11.265625 6.855469 11.238281 6.84375 11.222656 C 6.808594 11.09375 6.855469 10.972656 6.957031 10.945312 C 6.972656 10.800781 7.398438 8.488281 9.277344 7.960938 C 11.175781 7.429688 12.757812 9.191406 12.851562 9.300781 C 12.859375 9.300781 12.925781 9.285156 12.988281 9.339844 C 13.035156 9.375 13.0625 9.421875 13.082031 9.484375 C 12.914062 9.914062 12.75 10.335938 12.582031 10.753906 Z M 12.582031 10.753906 " fill-opacity="1" fill-rule="nonzero"/><g fill="#ffffff" fill-opacity="1"><g transform="translate(12.40078, 23.624997)"><g><path d="M 8.578125 -0.859375 C 8.609375 -0.773438 8.625 -0.6875 8.625 -0.59375 C 8.625 -0.40625 8.5625 -0.25 8.4375 -0.125 C 8.3125 -0.0078125 8.164062 0.046875 8 0.046875 C 7.863281 0.046875 7.742188 0.0078125 7.640625 -0.0625 C 7.535156 -0.144531 7.453125 -0.257812 7.390625 -0.40625 L 6.53125 -2.4375 L 2.265625 -2.4375 L 1.421875 -0.390625 C 1.378906 -0.242188 1.300781 -0.132812 1.1875 -0.0625 C 1.082031 0.0078125 0.96875 0.046875 0.84375 0.046875 C 0.644531 0.046875 0.492188 -0.00390625 0.390625 -0.109375 C 0.296875 -0.210938 0.25 -0.351562 0.25 -0.53125 C 0.25 -0.5625 0.257812 -0.632812 0.28125 -0.75 L 3.796875 -9.28125 C 3.859375 -9.425781 3.945312 -9.535156 4.0625 -9.609375 C 4.175781 -9.691406 4.3125 -9.722656 4.46875 -9.703125 C 4.601562 -9.703125 4.722656 -9.664062 4.828125 -9.59375 C 4.941406 -9.519531 5.019531 -9.414062 5.0625 -9.28125 Z M 2.796875 -3.6875 L 6.015625 -3.6875 L 4.390625 -7.5625 Z M 2.796875 -3.6875 "/></g></g></g><g fill="#ffffff" fill-opacity="1"><g transform="translate(21.263347, 23.624997)"><g><path d="M 4.078125 0.140625 C 3.398438 0.140625 2.800781 0.046875 2.28125 -0.140625 C 1.769531 -0.328125 1.28125 -0.632812 0.8125 -1.0625 C 0.625 -1.226562 0.53125 -1.414062 0.53125 -1.625 C 0.53125 -1.789062 0.59375 -1.941406 0.71875 -2.078125 C 0.84375 -2.210938 0.992188 -2.28125 1.171875 -2.28125 C 1.328125 -2.28125 1.460938 -2.226562 1.578125 -2.125 C 1.941406 -1.78125 2.316406 -1.523438 2.703125 -1.359375 C 3.097656 -1.203125 3.546875 -1.125 4.046875 -1.125 C 4.628906 -1.125 5.117188 -1.257812 5.515625 -1.53125 C 5.921875 -1.800781 6.125 -2.140625 6.125 -2.546875 C 6.113281 -3.023438 5.910156 -3.394531 5.515625 -3.65625 C 5.128906 -3.914062 4.535156 -4.132812 3.734375 -4.3125 C 2.785156 -4.5 2.054688 -4.8125 1.546875 -5.25 C 1.035156 -5.695312 0.78125 -6.3125 0.78125 -7.09375 C 0.78125 -7.644531 0.921875 -8.125 1.203125 -8.53125 C 1.484375 -8.9375 1.878906 -9.25 2.390625 -9.46875 C 2.898438 -9.695312 3.472656 -9.8125 4.109375 -9.8125 C 4.671875 -9.8125 5.207031 -9.71875 5.71875 -9.53125 C 6.226562 -9.34375 6.640625 -9.097656 6.953125 -8.796875 C 7.160156 -8.609375 7.265625 -8.410156 7.265625 -8.203125 C 7.265625 -8.035156 7.203125 -7.882812 7.078125 -7.75 C 6.953125 -7.625 6.800781 -7.5625 6.625 -7.5625 C 6.5 -7.5625 6.394531 -7.601562 6.3125 -7.6875 C 6.070312 -7.914062 5.738281 -8.113281 5.3125 -8.28125 C 4.894531 -8.445312 4.492188 -8.53125 4.109375 -8.53125 C 3.484375 -8.53125 2.988281 -8.40625 2.625 -8.15625 C 2.257812 -7.90625 2.078125 -7.570312 2.078125 -7.15625 C 2.078125 -6.707031 2.257812 -6.363281 2.625 -6.125 C 2.988281 -5.882812 3.53125 -5.679688 4.25 -5.515625 C 4.96875 -5.359375 5.554688 -5.171875 6.015625 -4.953125 C 6.472656 -4.742188 6.820312 -4.453125 7.0625 -4.078125 C 7.3125 -3.703125 7.4375 -3.207031 7.4375 -2.59375 C 7.4375 -2.0625 7.285156 -1.585938 6.984375 -1.171875 C 6.691406 -0.753906 6.285156 -0.429688 5.765625 -0.203125 C 5.253906 0.0234375 4.691406 0.140625 4.078125 0.140625 Z M 4.078125 0.140625 "/></g></g></g></svg>