<svg xmlns="http://www.w3.org/2000/svg" xmlns:xlink="http://www.w3.org/1999/xlink" width="150" zoomAndPan="magnify" viewBox="0 0 112.5 37.5" height="50" preserveAspectRatio="xMidYMid meet" version="1.0"><defs><g/><clipPath id="652e5fcaed"><path d="M 101 10 L 111.511719 10 L 111.511719 23 L 101 23 Z M 101 10 " clip-rule="nonzero"/></clipPath><clipPath id="b4aa0ef2f2"><path d="M 101 8 L 111.511719 8 L 111.511719 24 L 101 24 Z M 101 8 " clip-rule="nonzero"/></clipPath><clipPath id="1b49b78c94"><path d="M 0.492188 11 L 12 11 L 12 23 L 0.492188 23 Z M 0.492188 11 " clip-rule="nonzero"/></clipPath><clipPath id="3a8b369022"><path d="M 0.492188 8 L 54 8 L 54 24 L 0.492188 24 Z M 0.492188 8 " clip-rule="nonzero"/></clipPath><clipPath id="e62f6a898c"><path d="M 88.023438 10.910156 L 101.535156 10.910156 L 101.535156 33.710938 L 88.023438 33.710938 Z M 88.023438 10.910156 " clip-rule="nonzero"/></clipPath><clipPath id="6dc373d4b3"><path d="M 88.023438 10.910156 L 101.535156 10.910156 L 101.535156 25 L 88.023438 25 Z M 88.023438 10.910156 " clip-rule="nonzero"/></clipPath><clipPath id="2173db875a"><path d="M 89 12 L 101 12 L 101 33.710938 L 89 33.710938 Z M 89 12 " clip-rule="nonzero"/></clipPath></defs><g fill="#ffa7e4" fill-opacity="1"><g transform="translate(52.700261, 22.432591)"><g><path d="M 5.304688 -11.335938 L 1.488281 -11.335938 C 0.894531 -11.335938 0.46875 -10.839844 0.46875 -10.3125 L 0.46875 -1.078125 C 0.46875 -0.566406 0.894531 -0.0429688 1.488281 -0.0429688 L 5.304688 -0.0429688 C 7.535156 -0.0429688 9.234375 -1.84375 9.234375 -3.988281 L 9.234375 -7.40625 C 9.234375 -9.546875 7.535156 -11.335938 5.304688 -11.335938 Z M 5.773438 -5.347656 C 5.773438 -4.753906 5.335938 -4.339844 4.753906 -4.339844 L 4.070312 -4.339844 C 3.972656 -4.339844 3.875 -4.414062 3.875 -4.582031 L 3.875 -6.796875 C 3.875 -6.980469 3.972656 -7.066406 4.070312 -7.066406 L 4.753906 -7.066406 C 5.335938 -7.066406 5.773438 -6.640625 5.773438 -6.03125 Z M 5.773438 -5.347656 "/></g></g></g><g fill="#ffa7e4" fill-opacity="1"><g transform="translate(62.290754, 22.432591)"><g><path d="M 1.476562 0.015625 L 3.234375 0.015625 C 3.832031 0.015625 4.257812 -0.46875 4.257812 -1.007812 L 4.257812 -10.328125 C 4.257812 -10.925781 3.832031 -11.351562 3.234375 -11.351562 L 1.476562 -11.351562 C 0.921875 -11.351562 0.46875 -10.925781 0.46875 -10.328125 L 0.46875 -1.007812 C 0.46875 -0.46875 0.921875 0.015625 1.476562 0.015625 Z M 1.476562 0.015625 "/></g></g></g><g fill="#ffa7e4" fill-opacity="1"><g transform="translate(67.015061, 22.432591)"><g><path d="M 8.753906 -11.335938 L 6.964844 -11.335938 C 6.414062 -11.335938 5.929688 -10.882812 5.929688 -10.3125 L 5.929688 -6.980469 L 4.269531 -10.667969 C 4.113281 -11.066406 3.730469 -11.335938 3.292969 -11.335938 L 1.503906 -11.335938 C 0.9375 -11.335938 0.46875 -10.882812 0.46875 -10.3125 L 0.46875 -0.835938 C 0.46875 -0.269531 0.9375 0.183594 1.503906 0.183594 L 3.292969 0.183594 C 3.875 0.183594 4.328125 -0.269531 4.328125 -0.835938 L 4.328125 -4.027344 L 5.988281 -0.511719 C 6.15625 -0.113281 6.511719 0.183594 6.964844 0.183594 L 8.753906 0.183594 C 9.335938 0.183594 9.789062 -0.269531 9.789062 -0.835938 L 9.789062 -10.3125 C 9.789062 -10.882812 9.335938 -11.335938 8.753906 -11.335938 Z M 8.753906 -11.335938 "/></g></g></g><g fill="#ffa7e4" fill-opacity="1"><g transform="translate(77.272348, 22.432591)"><g><path d="M 8.46875 -11.390625 L 6.683594 -11.390625 C 6.101562 -11.390625 5.632812 -10.925781 5.632812 -10.34375 L 5.632812 -7.816406 C 5.632812 -7.730469 5.5625 -7.648438 5.492188 -7.632812 L 4.511719 -7.632812 C 4.441406 -7.648438 4.371094 -7.730469 4.355469 -7.804688 L 4.355469 -10.34375 C 4.355469 -10.925781 3.886719 -11.390625 3.304688 -11.390625 L 1.519531 -11.390625 C 0.9375 -11.390625 0.46875 -10.925781 0.46875 -10.34375 L 0.46875 -1.035156 C 0.46875 -0.441406 0.9375 0.0273438 1.519531 0.0273438 L 3.304688 0.0273438 C 3.886719 0.0273438 4.355469 -0.441406 4.355469 -1.035156 L 4.355469 -3.546875 C 4.371094 -3.644531 4.414062 -3.703125 4.511719 -3.730469 L 5.492188 -3.730469 C 5.5625 -3.703125 5.632812 -3.644531 5.632812 -3.546875 L 5.632812 -1.035156 C 5.632812 -0.441406 6.101562 0.0273438 6.683594 0.0273438 L 8.46875 0.0273438 C 9.066406 0.0273438 9.535156 -0.441406 9.535156 -1.035156 L 9.535156 -10.34375 C 9.535156 -10.925781 9.066406 -11.390625 8.46875 -11.390625 Z M 8.46875 -11.390625 "/></g></g></g><path stroke-linecap="butt" transform="matrix(0.788178, 0, 0, 0.788178, 51.143723, 14.196399)" fill="none" stroke-linejoin="miter" d="M 9.328308 -4.382525 L 4.481293 -4.382525 C 3.727974 -4.382525 3.187764 -3.748151 3.187764 -3.088997 L 3.187764 8.632058 C 3.187764 9.2813 3.727974 9.945411 4.481293 9.945411 L 9.328308 9.945411 C 12.153256 9.945411 14.309137 7.660672 14.309137 4.939802 L 14.309137 0.603259 C 14.309137 -2.117611 12.153256 -4.382525 9.328308 -4.382525 Z M 9.918078 3.215097 C 9.918078 3.968416 9.363001 4.493757 8.62455 4.493757 L 7.762197 4.493757 C 7.63334 4.493757 7.504483 4.399592 7.504483 4.186482 L 7.504483 1.376403 C 7.504483 1.143469 7.63334 1.034436 7.762197 1.034436 L 8.62455 1.034436 C 9.363001 1.034436 9.918078 1.574645 9.918078 2.347788 Z M 16.633524 10.019751 L 18.863746 10.019751 C 19.622021 10.019751 20.16223 9.405201 20.16223 8.721267 L 20.16223 -3.103865 C 20.16223 -3.86214 19.622021 -4.40235 18.863746 -4.40235 L 16.633524 -4.40235 C 15.929765 -4.40235 15.354863 -3.86214 15.354863 -3.103865 L 15.354863 8.721267 C 15.354863 9.405201 15.929765 10.019751 16.633524 10.019751 Z M 31.858505 -4.382525 L 29.593591 -4.382525 C 28.889832 -4.382525 28.280238 -3.807624 28.280238 -3.088997 L 28.280238 1.143469 L 26.173917 -3.535041 C 25.975675 -4.040558 25.489983 -4.382525 24.929949 -4.382525 L 22.665035 -4.382525 C 21.941452 -4.382525 21.346726 -3.807624 21.346726 -3.088997 L 21.346726 8.934377 C 21.346726 9.65796 21.941452 10.232861 22.665035 10.232861 L 24.929949 10.232861 C 25.6684 10.232861 26.243302 9.65796 26.243302 8.934377 L 26.243302 4.890241 L 28.354579 9.355641 C 28.567689 9.856202 29.018689 10.232861 29.593591 10.232861 L 31.858505 10.232861 C 32.596956 10.232861 33.176814 9.65796 33.176814 8.934377 L 33.176814 -3.088997 C 33.176814 -3.807624 32.596956 -4.382525 31.858505 -4.382525 Z M 44.516253 -4.45191 L 42.246382 -4.45191 C 41.507931 -4.45191 40.913205 -3.86214 40.913205 -3.123689 L 40.913205 0.0828742 C 40.913205 0.191907 40.828952 0.295984 40.734788 0.315809 L 39.495775 0.315809 C 39.401611 0.295984 39.317358 0.191907 39.292577 0.0977424 L 39.292577 -3.123689 C 39.292577 -3.86214 38.697852 -4.45191 37.964356 -4.45191 L 35.694486 -4.45191 C 34.956035 -4.45191 34.361309 -3.86214 34.361309 -3.123689 L 34.361309 8.686574 C 34.361309 9.439894 34.956035 10.03462 35.694486 10.03462 L 37.964356 10.03462 C 38.697852 10.03462 39.292577 9.439894 39.292577 8.686574 L 39.292577 5.499835 C 39.317358 5.370978 39.366918 5.301593 39.495775 5.266901 L 40.734788 5.266901 C 40.828952 5.301593 40.913205 5.370978 40.913205 5.499835 L 40.913205 8.686574 C 40.913205 9.439894 41.507931 10.03462 42.246382 10.03462 L 44.516253 10.03462 C 45.269572 10.03462 45.869254 9.439894 45.869254 8.686574 L 45.869254 -3.123689 C 45.869254 -3.86214 45.269572 -4.45191 44.516253 -4.45191 Z M 44.516253 -4.45191 " stroke="#ff66c4" stroke-width="0.2925" stroke-opacity="1" stroke-miterlimit="4"/><g fill="#ffa7e4" fill-opacity="1"><g transform="translate(87.26927, 22.432591)"><g/></g></g><g fill="#ffa7e4" fill-opacity="1"><g transform="translate(92.092893, 22.432591)"><g/></g></g><g fill="#ffa7e4" fill-opacity="1"><g transform="translate(96.916517, 22.432591)"><g/></g></g><g clip-path="url(#652e5fcaed)"><g fill="#ffa7e4" fill-opacity="1"><g transform="translate(101.739731, 22.432591)"><g><path d="M 4.964844 -11.859375 C 4.796875 -11.859375 0.242188 -12.101562 0.242188 -8.15625 C 0.242188 -5.6875 2.027344 -4.269531 4.425781 -4.269531 L 5.277344 -4.269531 C 5.746094 -4.269531 6.128906 -3.988281 6.128906 -3.519531 C 6.128906 -3.0625 5.746094 -2.738281 5.347656 -2.738281 C 5.121094 -2.738281 4.738281 -2.808594 4.597656 -3.375 C 4.554688 -3.488281 4.496094 -3.5625 4.285156 -3.519531 L 0.480469 -3.0625 C 0.269531 -3.023438 0.226562 -2.878906 0.339844 -2.667969 C 0.921875 -1.050781 1.957031 0.511719 5.503906 0.511719 C 7.292969 0.511719 9.546875 -0.46875 9.546875 -3.589844 C 9.546875 -7.433594 6.15625 -7.148438 4.964844 -7.148438 C 4.597656 -7.148438 3.886719 -7.234375 3.886719 -7.917969 C 3.886719 -8.46875 4.355469 -8.710938 4.667969 -8.710938 C 4.894531 -8.710938 5.277344 -8.539062 5.417969 -8.15625 C 5.476562 -7.988281 5.605469 -7.917969 5.746094 -7.917969 L 9.222656 -8.398438 C 9.378906 -8.414062 9.492188 -8.570312 9.449219 -8.78125 C 9.292969 -9.546875 8.613281 -11.859375 4.964844 -11.859375 Z M 4.964844 -11.859375 "/></g></g></g></g><g clip-path="url(#b4aa0ef2f2)"><path stroke-linecap="butt" transform="matrix(0.788178, 0, 0, 0.788178, 51.143723, 14.196399)" fill="none" stroke-linejoin="miter" d="M 71.115365 -5.046636 C 70.892342 -5.046636 65.118546 -5.353911 65.118546 -0.348302 C 65.118546 2.783921 67.388416 4.582966 70.426474 4.582966 L 71.511848 4.582966 C 72.101618 4.582966 72.587311 4.939802 72.587311 5.534528 C 72.587311 6.109429 72.101618 6.525737 71.596101 6.525737 C 71.313607 6.525737 70.822958 6.436528 70.64454 5.712945 C 70.590023 5.56922 70.515683 5.480011 70.248056 5.534528 L 65.420865 6.109429 C 65.153238 6.168902 65.103678 6.347319 65.242447 6.614946 C 65.980898 8.66675 67.294251 10.644213 71.794343 10.644213 C 74.064213 10.644213 76.928809 9.405201 76.928809 5.445319 C 76.928809 0.568567 72.626959 0.930359 71.115365 0.930359 C 70.64454 0.930359 69.742539 0.821325 69.742539 -0.045983 C 69.742539 -0.744786 70.337265 -1.052061 70.738705 -1.052061 C 71.0212 -1.052061 71.511848 -0.838951 71.690266 -0.348302 C 71.759651 -0.135192 71.923201 -0.045983 72.101618 -0.045983 L 76.512501 -0.655577 C 76.710743 -0.675401 76.854469 -0.873643 76.799952 -1.14127 C 76.60171 -2.117611 75.739358 -5.046636 71.115365 -5.046636 Z M 71.115365 -5.046636 " stroke="#ff66c4" stroke-width="0.2925" stroke-opacity="1" stroke-miterlimit="4"/></g><g clip-path="url(#1b49b78c94)"><g fill="#5ce1e6" fill-opacity="1"><g transform="translate(0.742771, 22.484583)"><g><path d="M 10.824219 -1.191406 L 8.414062 -10.371094 C 8.371094 -10.542969 8.328125 -10.796875 8.128906 -11.023438 C 7.917969 -11.234375 7.648438 -11.292969 7.449219 -11.292969 L 3.730469 -11.292969 C 3.519531 -11.292969 3.320312 -11.222656 3.179688 -11.109375 C 3.035156 -11.007812 2.878906 -10.839844 2.824219 -10.582031 L 0.269531 -1.207031 C 0.15625 -0.75 0.367188 -0.269531 0.792969 -0.0859375 C 0.90625 -0.0273438 1.019531 -0.015625 1.164062 -0.015625 L 3.09375 -0.015625 C 3.617188 -0.015625 3.832031 -0.339844 4.042969 -0.878906 L 4.453125 -1.984375 L 6.625 -1.984375 L 7.050781 -0.878906 C 7.265625 -0.339844 7.476562 0 8 0 L 9.929688 0 C 10.085938 0 10.242188 -0.0429688 10.355469 -0.113281 C 10.738281 -0.3125 10.925781 -0.765625 10.824219 -1.191406 Z M 6.214844 -5.261719 L 4.894531 -5.261719 C 4.753906 -5.261719 4.640625 -5.390625 4.710938 -5.53125 L 5.078125 -6.496094 L 5.363281 -7.234375 C 5.417969 -7.417969 5.675781 -7.417969 5.730469 -7.234375 L 6.03125 -6.496094 L 6.398438 -5.53125 C 6.441406 -5.390625 6.339844 -5.261719 6.214844 -5.261719 Z M 6.214844 -5.261719 "/></g></g></g></g><g fill="#5ce1e6" fill-opacity="1"><g transform="translate(11.8371, 22.484583)"><g><path d="M 4.964844 -11.859375 C 4.796875 -11.859375 0.242188 -12.101562 0.242188 -8.15625 C 0.242188 -5.6875 2.027344 -4.269531 4.425781 -4.269531 L 5.277344 -4.269531 C 5.746094 -4.269531 6.128906 -3.988281 6.128906 -3.519531 C 6.128906 -3.0625 5.746094 -2.738281 5.347656 -2.738281 C 5.121094 -2.738281 4.738281 -2.808594 4.597656 -3.375 C 4.554688 -3.488281 4.496094 -3.5625 4.285156 -3.519531 L 0.480469 -3.0625 C 0.269531 -3.023438 0.226562 -2.878906 0.339844 -2.667969 C 0.921875 -1.050781 1.957031 0.511719 5.503906 0.511719 C 7.292969 0.511719 9.546875 -0.46875 9.546875 -3.589844 C 9.546875 -7.433594 6.15625 -7.148438 4.964844 -7.148438 C 4.597656 -7.148438 3.886719 -7.234375 3.886719 -7.917969 C 3.886719 -8.46875 4.355469 -8.710938 4.667969 -8.710938 C 4.894531 -8.710938 5.277344 -8.539062 5.417969 -8.15625 C 5.476562 -7.988281 5.605469 -7.917969 5.746094 -7.917969 L 9.222656 -8.398438 C 9.378906 -8.414062 9.492188 -8.570312 9.449219 -8.78125 C 9.292969 -9.546875 8.613281 -11.859375 4.964844 -11.859375 Z M 4.964844 -11.859375 "/></g></g></g><g fill="#5ce1e6" fill-opacity="1"><g transform="translate(21.626214, 22.484583)"><g><path d="M 6.015625 -4.496094 C 5.886719 -4.496094 5.789062 -4.398438 5.789062 -4.269531 C 5.789062 -3.789062 5.347656 -3.363281 4.851562 -3.363281 C 4.328125 -3.363281 3.914062 -3.789062 3.914062 -4.269531 L 3.914062 -7.078125 C 3.914062 -7.761719 4.640625 -8.300781 5.40625 -7.859375 C 5.617188 -7.730469 5.789062 -7.417969 5.789062 -7.164062 L 5.789062 -7.09375 C 5.789062 -6.980469 5.886719 -6.867188 6.015625 -6.867188 L 9.25 -6.867188 C 9.347656 -6.867188 9.449219 -6.964844 9.449219 -7.078125 L 9.449219 -7.335938 C 9.449219 -9.660156 7.222656 -11.535156 4.851562 -11.535156 C 2.523438 -11.535156 0.242188 -9.660156 0.242188 -7.335938 L 0.242188 -4.128906 C 0.242188 -1.714844 2.523438 0.171875 4.851562 0.171875 C 7.222656 0.171875 9.449219 -1.714844 9.449219 -4.128906 L 9.449219 -4.296875 C 9.449219 -4.398438 9.347656 -4.496094 9.25 -4.496094 Z M 6.015625 -4.496094 "/></g></g></g><g fill="#5ce1e6" fill-opacity="1"><g transform="translate(31.316023, 22.484583)"><g><path d="M 8.46875 -11.390625 L 6.683594 -11.390625 C 6.101562 -11.390625 5.632812 -10.925781 5.632812 -10.34375 L 5.632812 -7.816406 C 5.632812 -7.730469 5.5625 -7.648438 5.492188 -7.632812 L 4.511719 -7.632812 C 4.441406 -7.648438 4.371094 -7.730469 4.355469 -7.804688 L 4.355469 -10.34375 C 4.355469 -10.925781 3.886719 -11.390625 3.304688 -11.390625 L 1.519531 -11.390625 C 0.9375 -11.390625 0.46875 -10.925781 0.46875 -10.34375 L 0.46875 -1.035156 C 0.46875 -0.441406 0.9375 0.0273438 1.519531 0.0273438 L 3.304688 0.0273438 C 3.886719 0.0273438 4.355469 -0.441406 4.355469 -1.035156 L 4.355469 -3.546875 C 4.371094 -3.644531 4.414062 -3.703125 4.511719 -3.730469 L 5.492188 -3.730469 C 5.5625 -3.703125 5.632812 -3.644531 5.632812 -3.546875 L 5.632812 -1.035156 C 5.632812 -0.441406 6.101562 0.0273438 6.683594 0.0273438 L 8.46875 0.0273438 C 9.066406 0.0273438 9.535156 -0.441406 9.535156 -1.035156 L 9.535156 -10.34375 C 9.535156 -10.925781 9.066406 -11.390625 8.46875 -11.390625 Z M 8.46875 -11.390625 "/></g></g></g><g fill="#5ce1e6" fill-opacity="1"><g transform="translate(41.317948, 22.484583)"><g><path d="M 10.824219 -1.191406 L 8.414062 -10.371094 C 8.371094 -10.542969 8.328125 -10.796875 8.128906 -11.023438 C 7.917969 -11.234375 7.648438 -11.292969 7.449219 -11.292969 L 3.730469 -11.292969 C 3.519531 -11.292969 3.320312 -11.222656 3.179688 -11.109375 C 3.035156 -11.007812 2.878906 -10.839844 2.824219 -10.582031 L 0.269531 -1.207031 C 0.15625 -0.75 0.367188 -0.269531 0.792969 -0.0859375 C 0.90625 -0.0273438 1.019531 -0.015625 1.164062 -0.015625 L 3.09375 -0.015625 C 3.617188 -0.015625 3.832031 -0.339844 4.042969 -0.878906 L 4.453125 -1.984375 L 6.625 -1.984375 L 7.050781 -0.878906 C 7.265625 -0.339844 7.476562 0 8 0 L 9.929688 0 C 10.085938 0 10.242188 -0.0429688 10.355469 -0.113281 C 10.738281 -0.3125 10.925781 -0.765625 10.824219 -1.191406 Z M 6.214844 -5.261719 L 4.894531 -5.261719 C 4.753906 -5.261719 4.640625 -5.390625 4.710938 -5.53125 L 5.078125 -6.496094 L 5.363281 -7.234375 C 5.417969 -7.417969 5.675781 -7.417969 5.730469 -7.234375 L 6.03125 -6.496094 L 6.398438 -5.53125 C 6.441406 -5.390625 6.339844 -5.261719 6.214844 -5.261719 Z M 6.214844 -5.261719 "/></g></g></g><g clip-path="url(#3a8b369022)"><path stroke-linecap="butt" transform="matrix(0.788178, 0, 0, 0.788178, -6.220175, 14.248392)" fill="none" stroke-linejoin="miter" d="M 23.186203 8.486796 L 20.128321 -3.154962 C 20.073804 -3.373028 20.019288 -3.700128 19.766529 -3.987578 C 19.498903 -4.255205 19.156935 -4.32459 18.899221 -4.32459 L 14.186019 -4.32459 C 13.918392 -4.32459 13.660678 -4.240337 13.487216 -4.091655 C 13.308798 -3.967754 13.1056 -3.749688 13.036216 -3.427545 L 9.79496 8.471927 C 9.651234 9.046829 9.918861 9.656423 10.45907 9.889357 C 10.602796 9.963698 10.751477 9.983522 10.929895 9.983522 L 13.378183 9.983522 C 14.042293 9.983522 14.314876 9.567214 14.582503 8.883279 L 15.102888 7.480718 L 17.858451 7.480718 L 18.39866 8.883279 C 18.666287 9.567214 18.938869 9.99839 19.60298 9.99839 L 22.051268 9.99839 C 22.24951 9.99839 22.447752 9.94883 22.591477 9.854665 C 23.082126 9.606863 23.31506 9.027005 23.186203 8.486796 Z M 17.338066 3.322593 L 15.662921 3.322593 C 15.484503 3.322593 15.335822 3.164 15.429987 2.980626 L 15.895855 1.756482 L 16.257647 0.819789 C 16.331988 0.586854 16.649175 0.586854 16.728472 0.819789 L 17.105131 1.756482 L 17.571 2.980626 C 17.625516 3.164 17.501615 3.322593 17.338066 3.322593 Z M 29.832264 -5.048173 C 29.609242 -5.048173 23.835445 -5.355448 23.835445 -0.349839 C 23.835445 2.782384 26.105315 4.581429 29.143373 4.581429 L 30.228748 4.581429 C 30.818517 4.581429 31.30421 4.943221 31.30421 5.532991 C 31.30421 6.112848 30.818517 6.5242 30.313 6.5242 C 30.030506 6.5242 29.539857 6.434992 29.361439 5.716365 C 29.306923 5.572639 29.232582 5.48343 28.964955 5.532991 L 24.137764 6.112848 C 23.870137 6.167365 23.820577 6.345783 23.959346 6.618365 C 24.697798 8.670169 26.01115 10.647633 30.511242 10.647633 C 32.781113 10.647633 35.645709 9.408621 35.645709 5.448738 C 35.645709 0.56703 31.343859 0.928822 29.832264 0.928822 C 29.361439 0.928822 28.459438 0.819789 28.459438 -0.0475198 C 28.459438 -0.746323 29.054164 -1.053598 29.450648 -1.053598 C 29.738099 -1.053598 30.228748 -0.835532 30.407165 -0.349839 C 30.47655 -0.131773 30.6401 -0.0475198 30.818517 -0.0475198 L 35.229401 -0.657114 C 35.422686 -0.671982 35.571368 -0.870224 35.516851 -1.13785 C 35.318609 -2.114192 34.456257 -5.048173 29.832264 -5.048173 Z M 43.580342 4.293979 C 43.421749 4.293979 43.292891 4.41788 43.292891 4.581429 C 43.292891 5.191023 42.732858 5.731233 42.10344 5.731233 C 41.439329 5.731233 40.913988 5.191023 40.913988 4.581429 L 40.913988 1.018031 C 40.913988 0.150722 41.830857 -0.528257 42.807199 0.0268209 C 43.074825 0.19037 43.292891 0.586854 43.292891 0.913954 L 43.292891 0.998206 C 43.292891 1.146888 43.421749 1.290613 43.580342 1.290613 L 47.688906 1.290613 C 47.807852 1.290613 47.936709 1.161756 47.936709 1.018031 L 47.936709 0.690931 C 47.936709 -2.257917 45.111761 -4.631865 42.10344 -4.631865 C 39.154591 -4.631865 36.255303 -2.257917 36.255303 0.690931 L 36.255303 4.759847 C 36.255303 7.822685 39.154591 10.216457 42.10344 10.216457 C 45.111761 10.216457 47.936709 7.822685 47.936709 4.759847 L 47.936709 4.546737 C 47.936709 4.41788 47.807852 4.293979 47.688906 4.293979 Z M 58.988697 -4.453447 L 56.718827 -4.453447 C 55.980375 -4.453447 55.390606 -3.858721 55.390606 -3.12027 L 55.390606 0.0813374 C 55.390606 0.19037 55.301397 0.294448 55.207232 0.314272 L 53.96822 0.314272 C 53.879011 0.294448 53.789802 0.19037 53.765022 0.101162 L 53.765022 -3.12027 C 53.765022 -3.858721 53.175252 -4.453447 52.436801 -4.453447 L 50.166931 -4.453447 C 49.428479 -4.453447 48.833754 -3.858721 48.833754 -3.12027 L 48.833754 8.685038 C 48.833754 9.443313 49.428479 10.033083 50.166931 10.033083 L 52.436801 10.033083 C 53.175252 10.033083 53.765022 9.443313 53.765022 8.685038 L 53.765022 5.498298 C 53.789802 5.374397 53.839362 5.300056 53.96822 5.265364 L 55.207232 5.265364 C 55.301397 5.300056 55.390606 5.374397 55.390606 5.498298 L 55.390606 8.685038 C 55.390606 9.443313 55.980375 10.033083 56.718827 10.033083 L 58.988697 10.033083 C 59.742016 10.033083 60.341698 9.443313 60.341698 8.685038 L 60.341698 -3.12027 C 60.341698 -3.858721 59.742016 -4.453447 58.988697 -4.453447 Z M 74.664678 8.486796 L 71.606796 -3.154962 C 71.55228 -3.373028 71.497763 -3.700128 71.245005 -3.987578 C 70.977378 -4.255205 70.635411 -4.32459 70.382652 -4.32459 L 65.664494 -4.32459 C 65.396868 -4.32459 65.144109 -4.240337 64.965691 -4.091655 C 64.787274 -3.967754 64.584076 -3.749688 64.514691 -3.427545 L 61.273435 8.471927 C 61.12971 9.046829 61.397336 9.656423 61.937546 9.889357 C 62.086227 9.963698 62.229953 9.983522 62.40837 9.983522 L 64.856658 9.983522 C 65.520769 9.983522 65.793351 9.567214 66.060978 8.883279 L 66.586319 7.480718 L 69.341882 7.480718 L 69.882091 8.883279 C 70.149718 9.567214 70.422301 9.99839 71.086411 9.99839 L 73.529743 9.99839 C 73.727985 9.99839 73.926227 9.94883 74.074908 9.854665 C 74.560601 9.606863 74.793535 9.027005 74.664678 8.486796 Z M 68.816541 3.322593 L 67.141397 3.322593 C 66.962979 3.322593 66.819253 3.164 66.908462 2.980626 L 67.374331 1.756482 L 67.736122 0.819789 C 67.810463 0.586854 68.132606 0.586854 68.206947 0.819789 L 68.583607 1.756482 L 69.049475 2.980626 C 69.108948 3.164 68.980091 3.322593 68.816541 3.322593 Z M 68.816541 3.322593 " stroke="#b2edef" stroke-width="0.2925" stroke-opacity="1" stroke-miterlimit="4"/></g><g clip-path="url(#e62f6a898c)"><path fill="#ff66c4" d="M 94.78125 10.957031 C 91.085938 10.957031 88.085938 13.953125 88.085938 17.632812 C 88.085938 19.308594 88.710938 20.914062 89.847656 22.144531 C 90.980469 23.371094 92.515625 24.128906 94.171875 24.277344 L 94.21875 24.28125 L 94.21875 24.332031 C 94.199219 24.328125 94.183594 24.328125 94.167969 24.328125 L 94.167969 24.890625 C 94.183594 24.894531 94.199219 24.894531 94.21875 24.894531 L 94.21875 26.007812 L 94.183594 26.007812 C 94.175781 26.007812 94.171875 26.011719 94.167969 26.011719 C 93.894531 26.015625 93.667969 26.210938 93.617188 26.472656 L 93.667969 26.472656 C 93.664062 26.476562 93.664062 26.480469 93.664062 26.484375 L 93.65625 26.523438 L 93.605469 26.523438 C 93.59375 26.523438 93.582031 26.535156 93.582031 26.546875 C 93.582031 26.558594 93.589844 26.570312 93.605469 26.570312 L 93.652344 26.574219 L 93.648438 26.621094 L 93.605469 26.621094 C 93.605469 26.621094 93.601562 26.621094 93.601562 26.621094 L 93.175781 32.929688 C 93.1875 32.925781 93.195312 32.921875 93.203125 32.921875 L 93.226562 32.921875 L 93.222656 32.964844 L 93.195312 32.972656 C 93.183594 32.976562 93.179688 32.988281 93.179688 32.996094 C 93.179688 33.003906 93.183594 33.011719 93.191406 33.019531 L 93.21875 33.03125 L 93.21875 33.070312 L 93.203125 33.070312 C 93.191406 33.070312 93.179688 33.066406 93.167969 33.0625 L 93.167969 33.09375 C 93.144531 33.425781 93.410156 33.710938 93.742188 33.710938 L 95.816406 33.710938 C 96.148438 33.710938 96.414062 33.425781 96.390625 33.09375 L 96.390625 33.0625 C 96.378906 33.066406 96.367188 33.070312 96.355469 33.070312 L 96.339844 33.070312 L 96.339844 33.03125 L 96.367188 33.019531 C 96.375 33.011719 96.378906 33.003906 96.378906 32.996094 C 96.378906 32.988281 96.375 32.976562 96.363281 32.972656 L 96.335938 32.964844 L 96.332031 32.921875 L 96.355469 32.921875 C 96.363281 32.921875 96.371094 32.925781 96.382812 32.929688 L 95.957031 26.621094 C 95.957031 26.621094 95.953125 26.621094 95.953125 26.621094 L 95.910156 26.621094 L 95.90625 26.574219 L 95.953125 26.570312 C 95.96875 26.570312 95.976562 26.558594 95.976562 26.546875 C 95.976562 26.535156 95.964844 26.523438 95.953125 26.523438 L 95.902344 26.523438 L 95.894531 26.484375 C 95.894531 26.480469 95.894531 26.476562 95.890625 26.472656 L 95.941406 26.472656 C 95.890625 26.210938 95.664062 26.015625 95.390625 26.011719 C 95.386719 26.011719 95.382812 26.007812 95.375 26.007812 L 95.339844 26.007812 L 95.339844 24.894531 C 95.359375 24.894531 95.375 24.894531 95.390625 24.890625 L 95.390625 24.328125 C 95.375 24.328125 95.359375 24.328125 95.339844 24.332031 L 95.339844 24.28125 L 95.386719 24.277344 C 97.042969 24.128906 98.578125 23.371094 99.710938 22.144531 C 100.847656 20.914062 101.472656 19.308594 101.472656 17.632812 C 101.472656 13.953125 98.472656 10.957031 94.78125 10.957031 Z M 94.78125 22.910156 C 91.859375 22.910156 89.484375 20.542969 89.484375 17.632812 C 89.484375 14.71875 91.859375 12.351562 94.78125 12.351562 C 97.699219 12.351562 100.074219 14.71875 100.074219 17.632812 C 100.074219 20.542969 97.699219 22.910156 94.78125 22.910156 Z M 91.328125 19.917969 C 91.410156 20.042969 91.375 20.210938 91.25 20.292969 C 91.207031 20.320312 91.15625 20.335938 91.101562 20.335938 C 91.011719 20.335938 90.929688 20.292969 90.878906 20.21875 C 90.621094 19.835938 90.425781 19.421875 90.292969 18.984375 C 90.25 18.84375 90.332031 18.691406 90.472656 18.648438 C 90.5 18.640625 90.527344 18.636719 90.550781 18.636719 C 90.671875 18.636719 90.777344 18.714844 90.808594 18.828125 C 90.925781 19.214844 91.101562 19.582031 91.328125 19.917969 Z M 95.046875 13.230469 C 95.046875 13.378906 94.929688 13.5 94.78125 13.5 C 93.996094 13.5 93.234375 13.71875 92.574219 14.132812 C 91.359375 14.894531 90.632812 16.203125 90.632812 17.632812 C 90.632812 17.78125 90.511719 17.898438 90.363281 17.898438 C 90.214844 17.898438 90.09375 17.78125 90.09375 17.632812 C 90.09375 16.015625 90.914062 14.539062 92.289062 13.675781 C 93.03125 13.207031 93.894531 12.960938 94.78125 12.960938 C 94.929688 12.960938 95.046875 13.082031 95.046875 13.230469 Z M 95.046875 13.230469 " fill-opacity="1" fill-rule="nonzero"/></g><g clip-path="url(#6dc373d4b3)"><path fill="#97e7dc" d="M 94.78125 10.910156 C 91.054688 10.910156 88.035156 13.917969 88.035156 17.632812 C 88.035156 21.140625 90.730469 24.019531 94.167969 24.328125 C 94.371094 24.34375 94.574219 24.355469 94.78125 24.355469 C 94.984375 24.355469 95.1875 24.34375 95.390625 24.328125 C 98.828125 24.019531 101.523438 21.140625 101.523438 17.632812 C 101.523438 13.917969 98.503906 10.910156 94.78125 10.910156 Z M 94.78125 23.257812 C 91.664062 23.257812 89.136719 20.738281 89.136719 17.632812 C 89.136719 14.523438 91.664062 12.007812 94.78125 12.007812 C 97.894531 12.007812 100.421875 14.523438 100.421875 17.632812 C 100.421875 20.738281 97.894531 23.257812 94.78125 23.257812 Z M 94.78125 23.257812 " fill-opacity="1" fill-rule="nonzero"/></g><path fill="#ff66c4" d="M 91.367188 19.890625 C 91.464844 20.039062 91.425781 20.234375 91.277344 20.332031 C 91.222656 20.367188 91.164062 20.386719 91.101562 20.386719 C 91 20.386719 90.898438 20.335938 90.835938 20.246094 C 90.578125 19.859375 90.382812 19.441406 90.246094 19 C 90.195312 18.832031 90.292969 18.652344 90.460938 18.601562 C 90.628906 18.550781 90.804688 18.648438 90.855469 18.816406 C 90.972656 19.195312 91.144531 19.558594 91.367188 19.890625 Z M 94.78125 12.914062 C 93.886719 12.914062 93.015625 13.164062 92.261719 13.636719 C 90.875 14.503906 90.046875 16 90.046875 17.632812 C 90.046875 17.808594 90.1875 17.949219 90.363281 17.949219 C 90.539062 17.949219 90.683594 17.808594 90.683594 17.632812 C 90.683594 16.21875 91.398438 14.925781 92.601562 14.171875 C 93.253906 13.765625 94.003906 13.546875 94.78125 13.546875 C 94.957031 13.546875 95.097656 13.40625 95.097656 13.230469 C 95.097656 13.054688 94.957031 12.914062 94.78125 12.914062 Z M 94.78125 12.914062 " fill-opacity="1" fill-rule="nonzero"/><g clip-path="url(#2173db875a)"><path fill="#b2edef" d="M 94.167969 26.472656 L 95.953125 26.472656 C 95.992188 26.472656 96.027344 26.507812 96.027344 26.546875 C 96.027344 26.585938 95.996094 26.617188 95.957031 26.621094 C 95.957031 26.621094 95.953125 26.621094 95.953125 26.621094 L 93.605469 26.621094 C 93.605469 26.621094 93.601562 26.621094 93.601562 26.621094 C 93.5625 26.617188 93.53125 26.585938 93.53125 26.546875 C 93.53125 26.507812 93.566406 26.472656 93.605469 26.472656 Z M 96.382812 32.929688 C 96.371094 32.925781 96.363281 32.921875 96.355469 32.921875 L 93.203125 32.921875 C 93.195312 32.921875 93.1875 32.925781 93.175781 32.929688 C 93.148438 32.9375 93.128906 32.964844 93.128906 32.996094 C 93.128906 33.023438 93.144531 33.046875 93.167969 33.0625 C 93.179688 33.066406 93.191406 33.070312 93.203125 33.070312 L 96.355469 33.070312 C 96.367188 33.070312 96.378906 33.066406 96.390625 33.0625 C 96.414062 33.046875 96.429688 33.023438 96.429688 32.996094 C 96.429688 32.964844 96.410156 32.9375 96.382812 32.929688 Z M 100.421875 17.632812 C 100.421875 20.738281 97.894531 23.257812 94.78125 23.257812 C 91.664062 23.257812 89.136719 20.738281 89.136719 17.632812 C 89.136719 14.523438 91.664062 12.007812 94.78125 12.007812 C 97.894531 12.007812 100.421875 14.523438 100.421875 17.632812 Z M 100.027344 17.632812 C 100.027344 14.742188 97.675781 12.398438 94.78125 12.398438 C 91.882812 12.398438 89.53125 14.742188 89.53125 17.632812 C 89.53125 20.519531 91.882812 22.863281 94.78125 22.863281 C 97.675781 22.863281 100.027344 20.519531 100.027344 17.632812 Z M 95.390625 26.011719 L 95.390625 24.890625 C 95.1875 24.910156 94.984375 24.917969 94.78125 24.917969 C 94.574219 24.917969 94.371094 24.910156 94.167969 24.890625 L 94.167969 26.011719 C 94.171875 26.011719 94.175781 26.007812 94.183594 26.007812 L 95.375 26.007812 C 95.382812 26.007812 95.386719 26.011719 95.390625 26.011719 Z M 95.390625 26.011719 " fill-opacity="1" fill-rule="nonzero"/></g></svg>